<svg version="1.1" id="Layer_1" xmlns="http://www.w3.org/2000/svg" x="0" y="0" viewBox="0 0 87 8.8" xml:space="preserve"><style>.st0{fill:#253361}</style><path class="st0" d="M15.3 1.4H18c.8 0 1.6 0 2.2.5.4.4.6.9.6 1.4 0 1.3-1.2 1.7-1.5 1.8 1.1.1 1.2.7 1.3 1.7.1.8.2 1.2.2 1.4.1.3.1.4.2.5h-1.7c-.1-.4-.3-2.2-.4-2.5-.1-.4-.5-.4-.8-.4h-1.4v2.9h-1.6V1.4zm1.5 3.2H18c.2 0 .5 0 .8-.2.1-.1.4-.3.4-.8s-.2-.7-.4-.8c-.2-.2-.5-.2-1-.2h-1v2zM22.1 1.4h4.8v1.2h-3.3v1.7h3.1v1.2h-3.1v1.9H27v1.2h-4.9V1.4zM32.2 3.8c0-.3-.1-1.3-1.2-1.3-1.1 0-1.6 1.2-1.6 2.7 0 .4 0 2.5 1.5 2.5.6 0 1.3-.4 1.3-1.4h1.6c0 .4-.1 1.1-.6 1.7-.6.7-1.4.8-2.1.8-2.5 0-3.3-1.8-3.3-3.6 0-2.3 1.3-3.8 3.3-3.8 1.6 0 2.7 1 2.7 2.4h-1.6zM34.8 1.4h4.8v1.2h-3.3v1.7h3.1v1.2h-3.1v1.9h3.4v1.2h-4.9V1.4zM40.9 1.4h2.2l2.7 5.7V1.4h1.4v7.2h-2.1l-2.8-6v6h-1.5V1.4zM50.3 2.6h-2.1V1.4H54v1.2h-2.1v6h-1.6v-6zM57.6 1.4h2.2l2.7 5.7V1.4H64v7.2h-2.1l-2.8-6v6h-1.5V1.4zM65.4 1.4h4.8v1.2H67v1.7h3v1.2h-3v1.9h3.4v1.2h-4.9V1.4zM72.5 1.5l1.1 5.4L75 1.5h1.7L78 6.9l1.2-5.4h1.5l-1.8 7.2h-1.7l-1.3-5.5-1.4 5.5h-1.8l-1.8-7.2h1.6zM82.7 6.4c0 .3 0 1.4 1.3 1.4.8 0 1.4-.4 1.4-1s-.5-.7-1.4-1c-1.7-.4-2.7-.9-2.7-2.2 0-1.2.8-2.2 2.9-2.2.8 0 1.6.2 2.2.8.4.5.4 1.1.4 1.3h-1.5c0-.3-.1-1.1-1.2-1.1-.7 0-1.2.4-1.2 1 0 .7.5.8 1.6 1 1.2.3 2.5.6 2.5 2 0 1.3-1.1 2.3-3.1 2.3-2.8 0-2.8-1.8-2.8-2.5h1.6z"/><path id="XMLID_1_" d="M4.5 7.6c.1-.6.2-1.1.4-1.6.4.1.9.2 1.4.3-.4-1.3-.7-2.4-1-3.7-.9.9-1.7 1.8-2.6 2.7.4.1.8.3 1.3.4-.1.5-.3 1-.4 1.6C2.5 7 1.5 6.8.5 6.5 0 6.3-.2 5.7.3 5.3c1.6-1.7 3.3-3.3 5-5 .4-.5 1-.3 1.2.4.6 2.2 1.2 4.5 1.8 6.7.2.7-.2 1.1-.9 1-.9-.3-1.9-.6-2.9-.8" fill="#a2c617"/></svg>