<svg version="1.1" id="Layer_1" xmlns="http://www.w3.org/2000/svg" x="0" y="0" viewBox="0 0 442.9 200" xml:space="preserve"><style>.st2{fill:#dce0ec}.st3{opacity:.1}.st4{fill:#212e56}.st12{fill:#e1a27f}.st14{opacity:.1;fill:#020203;enable-background:new}.st15{fill:#2a3259}.st20{opacity:5.000000e-02;fill:#020203;enable-background:new}.st22{fill:#a2c617}.st23{fill:none;stroke:#87a828;stroke-miterlimit:10}.st29{fill:#f6b7ba}.st30{fill:#ccceda}.st31{fill:#4d4d79}.st33{fill:#253361}</style><linearGradient id="SVGID_1_" gradientUnits="userSpaceOnUse" x1="403.5775" y1="20.393" x2="403.5775" y2="131.4233" gradientTransform="matrix(1 0 0 -1 -53 150.2097)"><stop offset="0" stop-color="#808181" stop-opacity=".25"/><stop offset=".54" stop-color="#808181" stop-opacity=".12"/><stop offset="1" stop-color="#808181" stop-opacity=".1"/></linearGradient><path d="M422.4 18.8H278.8c-2.8 0-5 2.3-5 5v101c0 2.8 2.2 5 5 5h143.6c2.8 0 5-2.3 5-5v-101c0-2.7-2.3-5-5-5z" fill="url(#SVGID_1_)"/><path d="M426.7 29.5v94.1c0 2.7-2.2 4.9-4.9 4.9H279.5c-2.7 0-4.9-2.2-4.9-4.9V29.5h152.1z" fill="#f7f8f9"/><path class="st2" d="M311.7 78v50.5h-32.2c-2.7 0-4.9-2.3-4.9-5V78h37.1zM322.7 41h62v1.7h-62zM322.7 53.4h37.4v1.7h-37.4zM368.4 53.4H381v1.7h-12.6z"/><g class="st3"><path class="st4" d="M285.9 96.9h12.6v1.7h-12.6z"/></g><path class="st2" d="M368.4 69.7H381v1.7h-12.6zM368.4 85.9H381v1.7h-12.6zM368.4 58.8H381v1.7h-12.6zM390.1 58.8h12.6v1.7h-12.6zM368.4 64.2H381v1.7h-12.6zM390.1 64.2h12.6v1.7h-12.6zM390.1 74.3h12.6V76h-12.6zM390.1 79.7h12.6v1.7h-12.6zM390.1 91.3h12.6V93h-12.6zM322.7 58.8h37.4v1.7h-37.4zM322.7 64.2h37.4v1.7h-37.4zM322.7 69.7h37.4v1.7h-37.4zM322.7 75.1h37.4v1.7h-37.4zM322.7 80.5h37.4v1.7h-37.4zM322.7 85.9h37.4v1.7h-37.4zM322.7 91.3h37.4V93h-37.4z"/><path class="st4" d="M274.5 29.4h37.2V79h-37.2z"/><path d="M426.7 24.4c0-2.7-2.2-4.9-4.9-4.9H279.5c-2.7 0-4.9 2.2-4.9 4.9V30h152.2v-5.6z" fill="#e8eaf1"/><circle cx="280.5" cy="24.7" r="1.9" fill="#ea5556"/><circle cx="286.9" cy="24.7" r="1.9" fill="#f4e600"/><circle cx="293.3" cy="24.7" r="1.9" fill="#85c69e"/><path d="M303.9 54.2c0 2.5-.8 4.9-2.4 6.8l-.2.2c-.6.6-1.2 1.2-1.9 1.7l-.1.1c-.1.1-.2.2-.4.3l-.1.1-.2.1h-.1-.1c-.3.2-.6.3-.9.4h-.1s-.1 0-.1.1c0 0-.1.1-.2.1-.6.3-1.3.5-1.9.6-.6.1-1.3.2-1.9.2h-.4c-.9 0-1.7-.1-2.5-.3h-.2c-.4-.1-.7-.2-1.1-.3l-.6-.3c-.1 0-.1 0-.2-.1l-.2-.1-.1-.1-.1-.1-.2-.1-.2-.1c-.8-.4-1.5-1-2.1-1.6l-.2-.2-.2-.2c-4.2-4.3-4.1-11.2.2-15.3 4.3-4.2 11.2-4.1 15.3.2 2.3 2.3 3.4 5 3.4 7.9z" fill="#fff"/><linearGradient id="SVGID_2_" gradientUnits="userSpaceOnUse" x1="346.4125" y1="85.1961" x2="346.4125" y2="102.6158" gradientTransform="matrix(1 0 0 -1 -53 150.2097)"><stop offset="0" stop-color="#808181" stop-opacity=".25"/><stop offset=".54" stop-color="#808181" stop-opacity=".12"/><stop offset="1" stop-color="#808181" stop-opacity=".1"/></linearGradient><path d="M300.7 58c0 .2-.1.3-.1.5v-.1c-.1-.8-.1-2.1.1-2.8.2-.7-1-.5-1.7.1-.2.2-.4.4-.5.6l-.1-.1c-.4-.4-.9-.7-1.5-.7-1.2-.1-2.3-.6-3.1-1.4 0-.1-.1-.3-.1-.4v-.1c.4-.4.7-.9.8-1.4 0-.2.1-.4.1-.6v-.2-.1-.1s.1 0 .1-.1c.3-.2.5-.4.6-.7 0-.1.1-.2.1-.3.1-.3.1-.6.1-.9v-.1c0-.2 0-.5-.3-.6-.3-.1-.5.4-.8.3-.1 0-.2-.1-.2-.1-.2-.2-.3-.5-.6-.7-.3-.3-.7-.5-1.2-.5-.4 0-.9 0-1.3.1-.2 0-.5.1-.7.2-.2.1-.4.3-.4.6v.5c-.1.2-.2.4-.4.5l-.6.3c-.3.2-.5.5-.6.9 0 .2-.1.4-.1.6v.6c.1.6.2 1.2.5 1.8.1.2.2.3.3.4l.1.1c.2.2.4.4.6.5l.1.1c.1.1.2.1.3.1 0 0 .1 0 .1-.1.2-.1.2-.4.2-.6v.5c-.1.1-.2.1-.3.3-.6.5-1.3.9-2 1.2-.8.3-1.4 1-1.6 1.8-.2.6-.4 1.2-.8 1.7-.1.1-.3 1.1-.6 2l.2.2.2.2c.6.6 1.3 1.1 2.1 1.6l.2.1.2.1v-.4-.2c0-.1.1-.1.1-.2v.2c0 .2 0 .4.1.7v0l.1.1.2.1c.1 0 .1 0 .2.1l.6.3c.3.1.7.2 1.1.3h.2c.8.2 1.7.3 2.5.3h.4c.7 0 1.3-.1 1.9-.2.7-.1 1.3-.3 1.9-.6.1 0 .1 0 .2-.1 0 0 .1 0 .1-.1s.1 0 .1 0c-.2-.6-.3-1-.3-1l.2-.6v-.1l.1-.2v.1c.1.5.4 1 .8 1.3h.1l.2-.1.1-.1c.1-.1.3-.2.4-.3l.1-.1c.7-.5 1.3-1.1 1.9-1.7l.2-.2-.9-3.1zm-1.5.8c0 .1 0 .1 0 0z" fill="url(#SVGID_2_)"/><linearGradient id="SVGID_3_" gradientUnits="userSpaceOnUse" x1="155.4993" y1="86.0822" x2="155.4993" y2="96.5493" gradientTransform="rotate(180 224.4943 75.10485)"><stop offset="0" stop-color="#808181" stop-opacity=".25"/><stop offset=".54" stop-color="#808181" stop-opacity=".12"/><stop offset="1" stop-color="#808181" stop-opacity=".1"/></linearGradient><path d="M299.2 58.5zm-10.9 5.4c0-.3 0-.5-.1-.7v-.4-.1c-.2.3-.3.5-.4.8l.2.1.2.1.1.2v0zm2.4-10.2z" fill="url(#SVGID_3_)"/><path class="st12" d="M293.8 51.8s-.6 2.9 1.1 4.4c1.8 1.5-4.2 2.7-5.2 1.4-1.1-1.3.7-1.9.7-1.9s.9-.7 0-2.9l3.4-1z"/><path d="M295.4 64.8c-.6.1-1.3.2-1.9.2h-.4c-.9 0-1.7-.1-2.5-.3h-.2c-.4-.1-.7-.2-1.1-.3l-.2-2.7.8-3.7.5-2.2.1-.6.1.2 1.4 1.9 1.5-1.6.1-.1.4-.4.2-.2.1.6.3 2 .5 3.7.3 3.5z" fill="#f0f1f5"/><path class="st14" d="M299.4 63c-.1.1-.2.2-.4.3l-.1.1-.2.1h-.1-.1c-.4-.3-.7-.8-.9-1.3 0-.1 0-.1-.1-.2l-.1.3-.3.8s.1.4.3 1c-.1 0-.1.1-.2.1-.6.3-1.3.5-1.9.6-.6.1-1.3.2-1.9.2h-.1c-.1-.8-.1-1.7-.1-2.5l.2-4.5.1-2.3.1-1.3.1.1.1.1c.8.7 1.8 1.1 2.9 1.2.6 0 1.1.3 1.5.8.3.5.5 1 .6 1.5l.1.5V58.9l.5 4.1z"/><path class="st15" d="M299.4 63c-.2.2-.3.2-.5.3l-.1.1-.2.1c-.4-.3-.7-.8-.9-1.3v-.1c0-.1 0-.1-.1-.2l-.1.2-.1.3-.2.6s.1.4.3 1.1c0 0-.1 0-.1.1s-.1.1-.2.1c-.6.3-1.3.5-1.9.6-.6.1-1.3.2-1.9.2-.1-.9-.1-1.8-.1-2.7l.2-4.4.1-2.3.1-1.1v-.2c.8.8 1.9 1.3 3 1.3.6 0 1.1.3 1.5.8.3.5.5 1 .6 1.6l.1.9v.2l.5 3.8z"/><path class="st14" d="M290.8 54.9v.5l-.1 1.4s-.1.4-.1 1.3c-.1 1.2-.1 3.3 0 6.6h-.2c-.4-.1-.7-.2-1.1-.3l-.6-.3c-.1 0-.1 0-.2-.1-.1-.7-.1-1.2-.1-1.2s0 .1-.1.2c0 0-.1.1-.1.2s-.1.1-.1.2-.1.2-.1.3l-.2-.1c-.8-.4-1.5-1-2.1-1.6.3-1 .5-2 .6-2.2.3-.5.6-1.1.8-1.7.2-.8.8-1.5 1.6-1.8.8-.2 1.5-.8 2.1-1.4z"/><path class="st15" d="M290.8 54.8c-.7.6-1.5 1.1-2.3 1.4-.8.3-1.4 1-1.6 1.8-.2.6-.4 1.1-.8 1.7-.1.1-.3 1.2-.6 2.2l.2.2c.6.6 1.3 1.1 2.1 1.6.1-.3.2-.5.4-.8l.1-.1v.3c0 .2.1.5.1.9l.2.1c.1 0 .1 0 .2.1l.6.3c.3.1.7.2 1.1.3-.1-3.2-.1-5.3-.1-6.6 0-1 .1-1.4.1-1.4l.2-1.3.1-.4v-.3z"/><path class="st14" d="M291.9 54.7c-.4 0-.8-.1-1.2-.3-.1-.5-.2-.9-.4-1.3l3.4-1c-.1.6-.1 1.3-.1 2-.4.3-1 .6-1.7.6z"/><circle class="st12" cx="291.9" cy="51.8" r="2.7"/><path d="M297.3 64.2c-.2-.7-.3-1.2-.3-1.2l.4-1c0 .1.1.3.1.4l-.2.6s.1.4.3 1.1c0 0-.1 0-.1.1s-.1-.1-.2 0z" fill="#020203"/><path class="st12" d="M300.4 59.2s-.2-2.3 0-3.5-2.8.2-2.2 1.7c.3.8.8 1.7 1.3 2.4l.9-.6z"/><path class="st14" d="M301.3 61.2c-.6.6-1.2 1.2-1.9 1.7l-.1.1c-.1.1-.2.2-.4.3-.3-.3-.5-.7-.8-1.1l.6-3.4.1.1.1.1c.3.3 1 .7 1.4-.3.1-.2.1-.4.1-.5l.1.2v.1l.8 2.7z"/><path class="st15" d="M301.3 61.2c-.6.6-1.2 1.2-1.9 1.7l-.1.1c-.1.1-.2.2-.4.3l-.1.1c-.3-.3-.5-.7-.7-1v-.1l.6-3.3.1.1.1.1s.1.1.2.1c.4.3.9.4 1.2-.4.1-.2.1-.3.1-.5l.1.3.8 2.5z"/><path d="M301.3 61.2c-.6.6-1.2 1.2-1.9 1.7l-.1.1c-.1.1-.2.2-.4.3l-.1.1c-.3-.3-.5-.7-.7-1v-.1l.6-3.3.1.1.1.1s.1.1.2.1c.4.3.9.4 1.2-.4.1-.2.1-.3.1-.5l.1.3.8 2.5z" opacity=".02" fill="#020203"/><path class="st14" d="M288.2 62.9s0-.1 0 0c.1-.4.2-.7.3-.7 0 0 .1.8.2 2-.1 0-.1 0-.2-.1l-.2-.1c0-.4-.1-.7-.1-.9v-.3.1zM291.9 51.1c.1-.1.3-.1.5-.1.1 0 .1.1.2.1.2.2.4.4.7.5h.5c.3 0 .6-.1.9-.3.6-.4.8-1.1.8-1.8 0-.2 0-.5-.3-.6-.3-.1-.5.4-.8.3-.1 0-.2-.1-.2-.1-.2-.2-.3-.5-.5-.7-.3-.3-.7-.5-1.2-.5-.4 0-.9 0-1.3.1-.2 0-.4.1-.7.2-.2.1-.3.3-.4.5v.5c-.1.2-.2.4-.4.5l-.6.3c-.3.2-.5.5-.5.9-.1.3-.1.7 0 1 .1.6.2 1.2.5 1.7.1.2.2.4.3.5.2.2.4.4.7.5.1.1.2.1.3.1 0 0 .1 0 .1-.1.2-.2.3-.5.2-.8-.1-.3-.2-.6-.2-.9v-.2c0-.1.1-.1.2-.2s.1-.2.2-.3l.3-.9c0-.2 0-.5-.2-.7.3.5.6.6.9.5z"/><path d="M291.9 51c.1-.1.3-.1.5-.1.1 0 .1.1.2.1.2.2.4.4.7.5h.5c.3 0 .6-.1.9-.3.6-.4.8-1.1.8-1.8 0-.2 0-.5-.3-.6-.3-.1-.5.4-.8.3-.1 0-.2-.1-.2-.1-.2-.2-.3-.5-.5-.7-.3-.3-.7-.5-1.2-.5-.4 0-.9 0-1.3.1-.2 0-.4.1-.7.2-.2.1-.3.3-.4.5v.5c-.1.2-.2.4-.4.5l-.6.3c-.3.2-.5.5-.5.9-.1.3-.1.7 0 1 .1.6.2 1.2.5 1.7.1.2.2.4.3.5.2.2.4.4.7.5.1.1.2.1.3.1 0 0 .1 0 .1-.1.2-.2.3-.5.2-.8-.1-.3-.2-.6-.2-.9v-.2c0-.1.1-.1.2-.2s.1-.2.2-.3l.3-.9c0-.2 0-.5-.2-.7.3.5.6.6.9.5z" fill="#473e3b"/><ellipse cx="277.3" cy="118.3" rx="4.5" ry="1.7" fill="#cd9494"/><ellipse class="st20" cx="277.3" cy="118.1" rx="2.3" ry=".8"/><path d="M272.8 117.9s5 2.8 9 .4c0 0-.6 9.6-3.3 10.5h-3.7s-3.1-6.4-2-10.9z" fill="#ee7364"/><path class="st22" d="M281.2 100.4c1.3 4.6-4.1 17.8-4.1 17.8s-11.3-8.6-12.6-13.2c-1.3-4.6 1.5-9.4 6.1-10.6 4.6-1.3 9.4 1.4 10.6 6z"/><path class="st23" d="M270.6 94.4s7 10.6 6.5 23.8"/><path class="st22" d="M283 108.9s-6.4-3.5-5.6 9.4c0 0 5.3-.2 7.2-4.5.8-1.9.2-3.9-1.6-4.9z"/><path class="st23" d="M283.1 108.9s-.8 6.7-5.7 9.3"/><path class="st20" d="M281.2 118.6c-.2 2.2-.9 9-3.3 9.8h-3.3l.2.4h3.7c2.8-.9 3.3-10.5 3.3-10.5l-.6.3z"/><path class="st2" d="M322.7 103.3h37.4V125h-37.4z"/><linearGradient id="SVGID_4_" gradientUnits="userSpaceOnUse" x1="432.9876" y1="-1.8346" x2="432.9876" y2="107.5584" gradientTransform="matrix(1 0 0 -1 -53 150.2097)"><stop offset="0" stop-color="#808181" stop-opacity=".25"/><stop offset=".54" stop-color="#808181" stop-opacity=".12"/><stop offset="1" stop-color="#808181" stop-opacity=".1"/></linearGradient><path d="M421.5 60.4v-.2c-.1-.9-.9-1.5-1.7-1.8-.8-.3-1.7-.5-2.5-1-1.2-.9-1.6-2.5-1.7-3.9 0-.5 0-.9-.1-1.4 0-.5 0-1 .1-1.4.1-.8.2-1.6.2-2.4 0-.8-.1-1.5-.4-2.2-.7-1.4-2.4-2.2-3.9-2.8-.6-.2-1.2-.5-1.8-.5-.7 0-1.3.2-2 .4-1 .3-2 .8-3.1 1-.6.1-1.2 0-1.8.2-1.1.4-1.3 1.4-1.3 2.5v.2l-.3-.3-.1-.1c-.1-.1-.2-.2-.4-.3h-.1c-.3-.2-.6-.3-.9-.5-.1-.1-.3-.1-.5-.2-.3-.1-.6-.2-1-.3-2.1-.4-4.3.3-5.8 1.8l-1.2 1.3c-5.6-1.3-5.8 3.6-5.8 3.6.1.6.3 1.2.5 1.8l-43.1 44-4.4 13.5 2.4-.9 11.2-4 40-40.9c3 2.1 6.1 5 6.1 5s-1.9 1-1.2 5.7c.9 5.7-.4 13.9-.4 13.9v5.3l.2-.1c0 .2-.1.4-.1.6-.4 2.6-.5 5.3-.2 8 .7 5.6 3.3 13.2 3.3 13.2s1 2.7 1.2 4.8c0 .4.1.8.3 1.2.5 1.2.8 2.4.8 3.7 0 2.3.3 5.8 1.7 9.4 1.1 2.9 1.5 4.6 1.7 5.5-.8 1-1.8 2.2-2.6 2.3-1.5.2-4.5.4-2.5 3 .1.1.1.2.2.2-1.5.2-3.2.8-1.6 2.9 2 2.6 13.6 1.4 13.6 1.4s.1-1.4 0-3c.8-.1 1.3-.1 1.3-.1s.3-6.2-1.1-7c-.3 0-.5.1-.8.2-.2-.9-.3-1.9-.3-2.7h.6v-9.3s-.7-5.8-3.1-8.4c-.3-.3-.6-.7-.8-1.1v-3c.1-.2.2-.3.3-.5 0 0 1.3-1.6 5.8-11.8 2.7-6 2.1-9.5 1.1-11.3-.2-.7-.6-2.5-1.3-6-.8-4.4.1-8.7.1-8.7s2.9-7.4 4.2-10.4c.3-.7.4-1.5.4-2.3.3-.3.5-.7.7-1.1l1.4-3.6c.3-.2.5-.6.5-1.1zm-18.4-6.5c.1.2.3.4.5.7 0 0-.2-.2-.5-.6-.1 0-.1 0 0-.1zm-6.7 7.5l3.7-3.8c1.3 1.2 2.7 2.4 3.8 3.4-.1.5-.3 1-.4 1.5-.5.2-1.2.3-2-.1-1.2-.8-3.6-1-5.1-1z" fill="url(#SVGID_4_)"/><path d="M393.4 47.3s-2.8 1.6-1.9 3.8c0 0 2.9.9 4 3s10.2 9.8 10.2 9.8l6.6-3.3s-2.3-3.1-9.6-5.2c0 0-4.3-4.6-5.8-5.4-1.4-.9-3.5-2.7-3.5-2.7z" fill="#f6bcd5"/><path class="st22" d="M393.4 47.3s-2.8 1.6-1.9 3.8c0 0 2.9.9 4 3s10.2 9.8 10.2 9.8l6.6-3.3s-2.3-3.1-9.6-5.2c0 0-4.3-4.6-5.8-5.4-1.4-.9-3.5-2.7-3.5-2.7z"/><path class="st4" d="M344.1 98.4l48-50.3c2.4-2.5 6.3-2.6 8.8-.2 2.5 2.4 2.6 6.3.2 8.8l-48 50.3-13.2 4.8 4.2-13.4z"/><path d="M398.2 47c2.5 2.4 2.6 6.3.2 8.8l-48 50.3-9.9 3.6-.7 2.1L353 107l48-50.2c2.4-2.5 2.3-6.4-.2-8.8-1-.9-2.3-1.5-3.6-1.7.4.2.7.4 1 .7z" opacity=".1" fill="#fff"/><path fill="#efc8c5" d="M344.1 98.4l8.9 8.5-10.8 4-2.3.8 1.5-4.7z"/><path d="M341.4 107c.3.1.6.2.9.4.3.2.6.6.5 1-.1.2-.2.5-.4.7-.3.6-.4 1.2-.2 1.8l-2.4.9 1.6-4.8z" fill="#727b9d"/><path class="st29" d="M410.6 138.1s.3 4.7.9 5.2-4.8.9-4.8.9l.7-6.1h3.2z"/><path class="st20" d="M410.6 138.1s.3 4.7.9 5.2-4.8.9-4.8.9l.7-6.1h3.2z"/><path class="st30" d="M411.8 141.7s-.7 0-3.4 1.4c0 0-1.8-.3-2.6-2.9 0 0-2.2 3.8-3.7 4-1.5.2-4.4.4-2.4 3 1.9 2.6 13.2 1.4 13.2 1.4s.3-6.1-1.1-6.9z"/><path class="st20" d="M411.8 141.7s-.7 0-3.4 1.4c0 0-1.8-.3-2.6-2.9 0 0-2.2 3.8-3.7 4-1.5.2-4.4.4-2.4 3 1.9 2.6 13.2 1.4 13.2 1.4s.3-6.1-1.1-6.9z"/><path class="st29" d="M410.2 145.3l-.7 2-4.9-1.4.3-2 .1-.5.2-1.3s4.2-1.1 4.2-.5c.1.4.1.9.3 1.3.2.7.4 1.4.5 1.9-.1.3 0 .5 0 .5z"/><path class="st31" d="M407.5 117.6c-.3.6-.7 1.6 0 3 .2.4.5.7.8 1.1 2.3 2.6 3 8.3 3 8.3v9.3l-1.6.1-2.6.2-3.8-15.8s-2.2-11.5-1.2-13.5 2-14.7 2-14.7l.9-.9 2.1-2.2h6.1c.5.3.9.8 1.2 1.3 1 1.7 1.9 5.2-.9 11.7-4.4 10.1-5.6 11.7-5.6 11.7-.2.1-.3.2-.4.4z"/><path class="st20" d="M407.5 117.6c-.3.6-.7 1.6 0 3 .2.4.5.7.8 1.1 2.3 2.6 3 8.3 3 8.3v9.3l-1.6.1-2.6.2-3.8-15.8s-2.2-11.5-1.2-13.5 2-14.7 2-14.7l.9-.9 2.1-2.2h6.1c.5.3.9.8 1.2 1.3 1 1.7 1.9 5.2-.9 11.7-4.4 10.1-5.6 11.7-5.6 11.7-.2.1-.3.2-.4.4z"/><path class="st14" d="M409.5 142.9l-4.6.6.2-1.3s4.2-1.1 4.2-.5c0 .3.1.8.2 1.2z"/><path class="st31" d="M407.2 103.9s.3 8.4.3 13.6v3c0 .4 0 .8-.1 1.2-.3 1 .3 3.1.3 3.1 2.7 7 1.9 13.2 1.9 13.2v4.7l-5.1.6s.9-.6-1.5-6.8c-1.3-3.5-1.6-7-1.6-9.3 0-1.3-.3-2.5-.7-3.7l-.3-1.2c-.2-2.1-1.2-4.8-1.2-4.8s-2.6-7.6-3.2-13.1c-.3-2.6-.2-5.3.1-7.9.1-.7.2-1.3.4-2 0 0 10.4-6.5 14.3-2 .4.4.7.9.9 1.5.2.5.4 1.1.5 1.7 1.3 5.9-5 8.2-5 8.2z"/><circle class="st29" cx="406.9" cy="51.9" r="5.4"/><path class="st29" d="M403.9 55.3s2.2 6.3 0 9.6 7.1 2.2 7.1 2.2l3.6-4.4s-4.3 0-4.5-7.5-6.2.1-6.2.1z"/><path class="st14" d="M414.7 95c-.8.3-1.6.5-2.4.6-1.3.2-2.9.2-3.8-.6-.5-.5-1.9-.5-3.5-.4-3.4.3-8 1.6-8.8 1.8.1-.7.2-1.3.4-2 0 0 10.4-6.5 14.3-2h2.3c.5.3.9.8 1.2 1.3.2.9.3 1.3.3 1.3zM410.2 145.3l-.7 2-4.9-1.4.3-2c.8 1.9 2.3 2.1 2.3 2.1 1.5-.8 2.4-1.1 2.9-1.3 0 .4.1.6.1.6z"/><path class="st30" d="M410.5 144.8s-.7 0-3.4 1.4c0 0-1.8-.3-2.6-2.9 0 0-2.2 3.8-3.7 4-1.5.2-4.4.4-2.4 3s13.2 1.4 13.2 1.4.3-6.1-1.1-6.9z"/><path class="st29" d="M385.3 52.9s.2-4.8 5.6-3.6l-1.4 2.6-4.2 1z"/><path class="st22" d="M410.4 64s-5.2-.9-6.6-1.9c0 0-1.1 2-3 1-1.9-1.1-6.4-1-6.4-1s-3.7-2-4.5-6.6c0 0-.7-2.8-.5-3.5 0 0-2.8-2.9-4.2 1 .5 2.7 1 2.4.9 4.6l1.7 4.7s.1 1.6 3.2 3.7 6.6 5.4 6.6 5.4-1.9 1-1.2 5.6c.8 5.7-.4 13.7-.4 13.7v5.2s10.6-3.1 12.5-1.5 6.2 0 6.2 0-.5-1.8-1.3-6.2c-.7-4.4.1-8.6.1-8.6s2.8-7.3 4-10.3c1.3-3-1-7-3.2-8.5s-3.1-.6-3.1-.6 4 2.9-.8 3.8z"/><path class="st14" d="M401 50.5c0 .2 0 .4.1.7.1.2.3.4.5.6.8.8 1.5 1.7 1.8 2.8.2.7.2 1.5.2 2.3 0 3.1-.2 6.4-2.1 8.8-.7.9-1.6 1.6-2.4 2.3l-.3.3c0 .1 0 .3.1.4.4.8 1.2 1.3 2 1.8.4.2.7.4 1.1.4 1 0 1.6-1 2.5-1.4 1.3-.6 2.7.2 4 .8.9.4 1.9.8 2.9 1 1.4.3 2.9.4 4-.4.7-.5 1.1-1.2 1.3-2 .1-.5.1-1.1.5-1.5.2-.2.5-.3.7-.4.3-.3.5-.7.6-1.1l1.3-3.6c.2-.4.3-.8.3-1.2-.1-.9-.9-1.5-1.7-1.8s-1.7-.5-2.4-1c-1.2-.9-1.6-2.4-1.7-3.9-.1-1-.1-2 0-3 .1-1.5.4-3.1-.2-4.4-.7-1.4-2.3-2.2-3.8-2.8-.6-.2-1.1-.5-1.8-.5-.6 0-1.3.2-1.9.4-1 .3-2 .8-3 1-.6.1-1.2 0-1.7.2-1.8.9-.9 3.6-.9 5.2z"/><path d="M401 50.3c0 .2 0 .4.1.7.1.2.3.4.5.6.8.8 1.5 1.7 1.8 2.8.2.7.2 1.5.2 2.3 0 3.1-.2 6.4-2.1 8.8-.7.9-1.6 1.6-2.4 2.3l-.3.3c0 .1 0 .3.1.4.4.8 1.2 1.3 2 1.8.4.2.7.4 1.1.4 1 0 1.6-1 2.5-1.4 1.3-.6 2.7.2 4 .8.9.4 1.9.8 2.9 1 1.4.3 2.9.4 4-.4.7-.5 1.1-1.2 1.3-2 .1-.5.1-1.1.5-1.5.2-.2.5-.3.7-.4.3-.3.5-.7.6-1.1l1.3-3.6c.2-.4.3-.8.3-1.2-.1-.9-.9-1.5-1.7-1.8-.8-.3-1.7-.5-2.4-1-1.2-.9-1.6-2.4-1.7-3.9-.1-1-.1-2 0-3 .1-1.5.4-3.1-.2-4.4-.7-1.4-2.3-2.2-3.8-2.8-.6-.2-1.1-.5-1.8-.5-.6 0-1.3.2-1.9.4-1 .3-2 .8-3 1-.6.1-1.2 0-1.7.2-1.8.9-.9 3.6-.9 5.2z" fill="#ba6c6c"/><path class="st20" d="M396.7 79.4s.8-.2 5.1-.8c4.3-.6 11.7.9 11.7.9"/><g><g id="XMLID_353_"><g id="XMLID_384_"><path id="XMLID_394_" class="st33" d="M11.9 32.1c1.6-.3 3.6-.5 6.2-.5 3.2 0 5.5.7 7 2.1 1.3 1.2 2.2 3 2.2 5.2 0 2.3-.7 4.1-1.9 5.4-1.7 1.8-4.5 2.8-7.7 2.8-1 0-1.9 0-2.6-.2v10h-3.2V32.1zm3.2 12.1c.7.2 1.6.3 2.7.3 3.9 0 6.3-1.9 6.3-5.3 0-3.3-2.4-4.9-5.9-4.9-1.4 0-2.5.1-3 .3v9.6z"/><path id="XMLID_391_" class="st33" d="M43.2 52.6c0 1.6.1 3.1.3 4.3h-2.9l-.3-2.3h-.1c-1 1.4-2.9 2.7-5.5 2.7-3.6 0-5.5-2.6-5.5-5.2 0-4.3 3.9-6.7 10.8-6.7V45c0-1.4-.4-4.2-4.1-4.1-1.7 0-3.5.5-4.7 1.3l-.7-2.2c1.5-.9 3.7-1.6 5.9-1.6 5.5 0 6.8 3.8 6.8 7.3v6.9zm-3.1-4.9c-3.6-.1-7.6.6-7.6 4.1 0 2.2 1.4 3.1 3 3.1 2.4 0 3.9-1.5 4.4-3 .1-.4.1-.7.1-1v-3.2z"/><path id="XMLID_388_" class="st33" d="M63.9 54.3c0 4.2-.9 6.7-2.6 8.3-1.8 1.6-4.3 2.2-6.6 2.2-2.2 0-4.5-.5-6-1.5l.8-2.5c1.2.8 3 1.5 5.3 1.5 3.3 0 5.8-1.7 5.8-6.3v-2h-.1c-1 1.7-2.9 3-5.7 3-4.5 0-7.7-3.8-7.7-8.8 0-6.1 4-9.5 8.1-9.5 3.1 0 4.8 1.6 5.6 3.1h.2l.1-2.7H64c-.1 1.3-.1 2.8-.1 4.9v10.3zM60.6 46c0-.6 0-1-.2-1.5-.6-1.9-2.2-3.5-4.6-3.5-3.1 0-5.4 2.6-5.4 6.8 0 3.5 1.8 6.5 5.3 6.5 2 0 3.9-1.3 4.5-3.3.2-.6.3-1.2.3-1.7V46z"/><path id="XMLID_385_" class="st33" d="M71.1 48.5c.1 4.4 2.9 6.2 6.2 6.2 2.3 0 3.8-.4 5-.9l.6 2.3c-1.2.5-3.2 1.2-6 1.2-5.5 0-8.8-3.7-8.8-9.1 0-5.4 3.2-9.7 8.4-9.7 5.9 0 7.4 5.1 7.4 8.4 0 .7 0 1.2-.1 1.5H71.1zm9.6-2.4c0-2-.9-5.3-4.5-5.3-3.3 0-4.8 3-5 5.3h9.5z"/></g><g id="XMLID_372_"><path id="XMLID_382_" class="st33" d="M87.6 56.9V31.8h6.6l5.2 9.2c1.5 2.6 2.9 5.8 4.1 8.6h.1c-.3-3.3-.4-6.7-.4-10.5v-7.3h5.2v25.1h-5.9l-5.4-9.7c-1.5-2.7-3.2-5.9-4.3-8.8h-.1c.2 3.3.3 6.9.3 11v7.5h-5.4z"/><path id="XMLID_379_" class="st33" d="M131 47.6c0 6.7-4.7 9.7-9.6 9.7-5.3 0-9.4-3.5-9.4-9.4s3.9-9.7 9.7-9.7c5.6.1 9.3 3.9 9.3 9.4zm-13.2.2c0 3.1 1.3 5.5 3.7 5.5 2.2 0 3.6-2.2 3.6-5.5 0-2.7-1-5.4-3.6-5.4-2.6-.1-3.7 2.7-3.7 5.4z"/><path id="XMLID_377_" class="st33" d="M134.5 44.7c0-2.7 0-4.4-.1-6h4.8l.2 3.3h.1c.9-2.7 3.1-3.8 4.9-3.8.5 0 .8 0 1.2.1v5.3c-.4-.1-.9-.1-1.5-.1-2.1 0-3.5 1.1-3.9 2.9-.1.4-.1.8-.1 1.3v9.2h-5.7V44.7z"/><path id="XMLID_375_" class="st33" d="M155.7 33.8v4.9h4.1v4.2h-4.1v6.6c0 2.2.6 3.2 2.2 3.2.8 0 1.2 0 1.7-.1v4.3c-.7.3-2.1.5-3.6.5-1.8 0-3.3-.6-4.3-1.6-1-1.1-1.6-2.8-1.6-5.4V43h-2.4v-4.2h2.4v-3.4l5.6-1.6z"/><path id="XMLID_373_" class="st33" d="M163 30.5h5.7v10.4h.1c.6-.8 1.3-1.4 2.2-1.9.9-.4 1.9-.7 2.9-.7 3.6 0 6.4 2.5 6.4 8v10.6h-5.7v-10c0-2.4-.8-4-2.9-4-1.5 0-2.4 1-2.8 2-.1.3-.2.8-.2 1.2v10.8H163V30.5z"/></g><path id="XMLID_371_" class="st22" d="M45.7 32.7c.4-1.5.7-2.9 1.1-4.3 1.2.3 2.3.5 3.8.8-.9-3.4-1.7-6.5-2.6-9.9l-7.3 7.3c1.2.4 2.3.8 3.6 1.2-.4 1.4-.7 2.8-1.2 4.4-2.9-.8-5.7-1.5-8.3-2.4-1.5-.5-1.8-2.2-.6-3.4 4.5-4.6 9-9.1 13.6-13.6 1.4-1.4 3-.8 3.5 1.1 1.7 6.1 3.3 12.2 4.9 18.4.5 1.8-.7 3.1-2.4 2.7-2.6-.7-5.2-1.5-8.1-2.3"/><g id="XMLID_354_"><path id="XMLID_368_" class="st33" d="M145.6 64.3c.6-.1 1.2-.2 1.9-.2 1.3 0 2.2.3 2.9.9.6.6 1 1.4 1 2.5 0 1.2-.4 2.1-1 2.7-.7.7-1.8 1-3.1 1-.7 0-1.2 0-1.7-.1v-6.8zm.9 6.3h.9c2 0 3-1.1 3-3 0-1.7-.9-2.7-2.9-2.7-.5 0-.8 0-1.1.1v5.6z"/><path id="XMLID_366_" class="st33" d="M153.7 64.2v7.1h-.9v-7.1h.9z"/><path id="XMLID_364_" class="st33" d="M160.8 71c-.4.2-1.2.4-2.2.4-1.1 0-1.9-.3-2.6-.9-.6-.6-1-1.5-1-2.6 0-2.1 1.5-3.6 3.8-3.6.8 0 1.5.2 1.8.3l-.2.7c-.4-.2-.8-.3-1.6-.3-1.7 0-2.8 1.1-2.8 2.8 0 1.8 1.1 2.8 2.7 2.8.6 0 1-.1 1.2-.2v-2.1h-1.4v-.7h2.3V71z"/><path id="XMLID_362_" class="st33" d="M163.3 64.2v7.1h-.9v-7.1h.9z"/><path id="XMLID_360_" class="st33" d="M166.5 65h-2.1v-.8h5.2v.8h-2.2v6.3h-.9V65z"/><path id="XMLID_357_" class="st33" d="M170.9 69l-.7 2.2h-.9l2.4-7.1h1.1l2.4 7.1h-1l-.8-2.2h-2.5zm2.3-.7l-.7-2c-.2-.5-.3-.9-.4-1.3-.1.4-.2.8-.4 1.3l-.7 2h2.2z"/><path id="XMLID_355_" class="st33" d="M176.3 64.2h.9v6.3h3v.8h-3.9v-7.1z"/></g></g></g><path class="st2" d="M-121.4-80.4h80.1v70.3h-80.1z"/></svg>